<mxfile host="app.diagrams.net" agent="Mozilla/5.0 (Macintosh; Intel Mac OS X 10_15_7) AppleWebKit/537.36 (KHTML, like Gecko) Chrome/132.0.0.0 Safari/537.36" version="26.0.16">
  <diagram name="1 oldal" id="ep9b225kRsbNhc0lqnvG">
    <mxGraphModel dx="2776" dy="1881" grid="1" gridSize="10" guides="1" tooltips="1" connect="1" arrows="1" fold="1" page="1" pageScale="1" pageWidth="827" pageHeight="1169" math="0" shadow="0">
      <root>
        <mxCell id="0" />
        <mxCell id="1" parent="0" />
        <mxCell id="odKOxgNMxmCA9S5rexNY-2" value="&lt;p style=&quot;margin:0px;margin-top:4px;text-align:center;&quot;&gt;&lt;b&gt;Map&lt;/b&gt;&lt;/p&gt;&lt;hr size=&quot;1&quot; style=&quot;border-style:solid;&quot;&gt;&lt;p style=&quot;margin:0px;margin-left:4px;&quot;&gt;+ board: List&amp;lt;Biome&amp;gt;&lt;/p&gt;&lt;p style=&quot;margin:0px;margin-left:4px;&quot;&gt;+ entities: List&amp;lt;Entity&amp;gt;&lt;/p&gt;&lt;p style=&quot;margin:0px;margin-left:4px;&quot;&gt;+ size: int&lt;/p&gt;&lt;p style=&quot;margin:0px;margin-left:4px;&quot;&gt;+ money: Float&lt;/p&gt;&lt;p style=&quot;margin:0px;margin-left:4px;&quot;&gt;+ time: DateTime&lt;/p&gt;&lt;hr size=&quot;1&quot; style=&quot;border-style:solid;&quot;&gt;&lt;p style=&quot;margin:0px;margin-left:4px;&quot;&gt;+ Map(size, money)&lt;/p&gt;&lt;p style=&quot;margin:0px;margin-left:4px;&quot;&gt;+ listEntitiesInBiome(Biome biome): List&amp;lt;Entity&amp;gt;&lt;/p&gt;&lt;p style=&quot;margin:0px;margin-left:4px;&quot;&gt;+ plant(Biome, biome, Tile tile)&lt;/p&gt;&lt;p style=&quot;margin:0px;margin-left:4px;&quot;&gt;+ buy(entity: Entity)&lt;/p&gt;&lt;p style=&quot;margin:0px;margin-left:4px;&quot;&gt;+ sell(entity: Entity)&lt;/p&gt;" style="verticalAlign=top;align=left;overflow=fill;html=1;whiteSpace=wrap;" parent="1" vertex="1">
          <mxGeometry x="150" y="-110" width="160" height="220" as="geometry" />
        </mxCell>
        <mxCell id="odKOxgNMxmCA9S5rexNY-7" value="&lt;span style=&quot;font-weight: normal;&quot;&gt;&amp;lt;abstract&amp;gt;&lt;/span&gt;&lt;div&gt;Biome&lt;/div&gt;" style="swimlane;fontStyle=1;align=center;verticalAlign=top;childLayout=stackLayout;horizontal=1;startSize=50;horizontalStack=0;resizeParent=1;resizeParentMax=0;resizeLast=0;collapsible=1;marginBottom=0;whiteSpace=wrap;html=1;" parent="1" vertex="1">
          <mxGeometry x="160" y="165" width="180" height="182" as="geometry" />
        </mxCell>
        <mxCell id="odKOxgNMxmCA9S5rexNY-40" value="" style="endArrow=diamondThin;endFill=1;endSize=24;html=1;rounded=0;" parent="odKOxgNMxmCA9S5rexNY-7" edge="1" target="odKOxgNMxmCA9S5rexNY-2">
          <mxGeometry width="160" relative="1" as="geometry">
            <mxPoint x="30" as="sourcePoint" />
            <mxPoint x="30" y="-75" as="targetPoint" />
          </mxGeometry>
        </mxCell>
        <mxCell id="odKOxgNMxmCA9S5rexNY-8" value="+ tiles:&amp;nbsp; List&amp;lt;Tile&amp;gt;&lt;div&gt;+ entities: List&amp;lt;Entity&amp;gt;&lt;/div&gt;&lt;div&gt;+ map: Map&lt;br&gt;&lt;div&gt;&amp;nbsp;&lt;/div&gt;&lt;/div&gt;" style="text;strokeColor=none;fillColor=none;align=left;verticalAlign=top;spacingLeft=4;spacingRight=4;overflow=hidden;rotatable=0;points=[[0,0.5],[1,0.5]];portConstraint=eastwest;whiteSpace=wrap;html=1;" parent="odKOxgNMxmCA9S5rexNY-7" vertex="1">
          <mxGeometry y="50" width="180" height="64" as="geometry" />
        </mxCell>
        <mxCell id="odKOxgNMxmCA9S5rexNY-9" value="" style="line;strokeWidth=1;fillColor=none;align=left;verticalAlign=middle;spacingTop=-1;spacingLeft=3;spacingRight=3;rotatable=0;labelPosition=right;points=[];portConstraint=eastwest;strokeColor=inherit;" parent="odKOxgNMxmCA9S5rexNY-7" vertex="1">
          <mxGeometry y="114" width="180" height="6" as="geometry" />
        </mxCell>
        <mxCell id="odKOxgNMxmCA9S5rexNY-10" value="&lt;div&gt;- Biome()&lt;/div&gt;- tileContent(Tile tile): Entry&amp;lt;boolean, Tile&amp;gt;&lt;div&gt;&lt;div&gt;&lt;div&gt;&lt;br&gt;&lt;/div&gt;&lt;/div&gt;&lt;/div&gt;" style="text;strokeColor=none;fillColor=none;align=left;verticalAlign=top;spacingLeft=4;spacingRight=4;overflow=hidden;rotatable=0;points=[[0,0.5],[1,0.5]];portConstraint=eastwest;whiteSpace=wrap;html=1;" parent="odKOxgNMxmCA9S5rexNY-7" vertex="1">
          <mxGeometry y="120" width="180" height="62" as="geometry" />
        </mxCell>
        <mxCell id="odKOxgNMxmCA9S5rexNY-11" value="Grassy" style="swimlane;fontStyle=1;align=center;verticalAlign=top;childLayout=stackLayout;horizontal=1;startSize=26;horizontalStack=0;resizeParent=1;resizeParentMax=0;resizeLast=0;collapsible=1;marginBottom=0;whiteSpace=wrap;html=1;" parent="1" vertex="1">
          <mxGeometry x="470" y="290" width="160" height="34" as="geometry" />
        </mxCell>
        <mxCell id="odKOxgNMxmCA9S5rexNY-13" value="" style="line;strokeWidth=1;fillColor=none;align=left;verticalAlign=middle;spacingTop=-1;spacingLeft=3;spacingRight=3;rotatable=0;labelPosition=right;points=[];portConstraint=eastwest;strokeColor=inherit;" parent="odKOxgNMxmCA9S5rexNY-11" vertex="1">
          <mxGeometry y="26" width="160" height="8" as="geometry" />
        </mxCell>
        <mxCell id="odKOxgNMxmCA9S5rexNY-15" value="Desert" style="swimlane;fontStyle=1;align=center;verticalAlign=top;childLayout=stackLayout;horizontal=1;startSize=26;horizontalStack=0;resizeParent=1;resizeParentMax=0;resizeLast=0;collapsible=1;marginBottom=0;whiteSpace=wrap;html=1;" parent="1" vertex="1">
          <mxGeometry x="470" y="240" width="160" height="34" as="geometry">
            <mxRectangle x="470" y="240" width="80" height="30" as="alternateBounds" />
          </mxGeometry>
        </mxCell>
        <mxCell id="odKOxgNMxmCA9S5rexNY-17" value="" style="line;strokeWidth=1;fillColor=none;align=left;verticalAlign=middle;spacingTop=-1;spacingLeft=3;spacingRight=3;rotatable=0;labelPosition=right;points=[];portConstraint=eastwest;strokeColor=inherit;" parent="odKOxgNMxmCA9S5rexNY-15" vertex="1">
          <mxGeometry y="26" width="160" height="8" as="geometry" />
        </mxCell>
        <mxCell id="odKOxgNMxmCA9S5rexNY-19" value="Swamp" style="swimlane;fontStyle=1;align=center;verticalAlign=top;childLayout=stackLayout;horizontal=1;startSize=26;horizontalStack=0;resizeParent=1;resizeParentMax=0;resizeLast=0;collapsible=1;marginBottom=0;whiteSpace=wrap;html=1;" parent="1" vertex="1">
          <mxGeometry x="470" y="193.5" width="160" height="34" as="geometry" />
        </mxCell>
        <mxCell id="odKOxgNMxmCA9S5rexNY-21" value="" style="line;strokeWidth=1;fillColor=none;align=left;verticalAlign=middle;spacingTop=-1;spacingLeft=3;spacingRight=3;rotatable=0;labelPosition=right;points=[];portConstraint=eastwest;strokeColor=inherit;" parent="odKOxgNMxmCA9S5rexNY-19" vertex="1">
          <mxGeometry y="26" width="160" height="8" as="geometry" />
        </mxCell>
        <mxCell id="odKOxgNMxmCA9S5rexNY-26" value="&lt;p style=&quot;margin:0px;margin-top:4px;text-align:center;&quot;&gt;&lt;i style=&quot;background-color: transparent; color: light-dark(rgb(0, 0, 0), rgb(255, 255, 255));&quot;&gt;&amp;lt;abstarct&amp;gt;&lt;/i&gt;&lt;/p&gt;&lt;p style=&quot;margin:0px;margin-top:4px;text-align:center;&quot;&gt;&lt;b&gt;Tile&lt;/b&gt;&lt;/p&gt;&lt;hr size=&quot;1&quot; style=&quot;border-style:solid;&quot;&gt;&lt;p style=&quot;margin:0px;margin-left:4px;&quot;&gt;+ x:&amp;nbsp;&lt;/p&gt;&lt;p style=&quot;margin:0px;margin-left:4px;&quot;&gt;+ y:&amp;nbsp;&lt;/p&gt;&lt;p style=&quot;margin:0px;margin-left:4px;&quot;&gt;+ entity Entity&lt;/p&gt;&lt;p style=&quot;margin:0px;margin-left:4px;&quot;&gt;+ biome: Biome&lt;/p&gt;&lt;p style=&quot;margin:0px;margin-left:4px;&quot;&gt;&lt;br&gt;&lt;/p&gt;&lt;hr size=&quot;1&quot; style=&quot;border-style:solid;&quot;&gt;&lt;p style=&quot;margin:0px;margin-left:4px;&quot;&gt;+ hasEntity() boolean&lt;span style=&quot;background-color: transparent; color: light-dark(rgb(0, 0, 0), rgb(255, 255, 255));&quot;&gt;&amp;nbsp;&lt;/span&gt;&lt;/p&gt;" style="verticalAlign=top;align=left;overflow=fill;html=1;whiteSpace=wrap;" parent="1" vertex="1">
          <mxGeometry x="80" y="470" width="160" height="160" as="geometry" />
        </mxCell>
        <mxCell id="odKOxgNMxmCA9S5rexNY-27" value="&lt;p style=&quot;margin:0px;margin-top:4px;text-align:center;&quot;&gt;&lt;i style=&quot;background-color: transparent; color: light-dark(rgb(0, 0, 0), rgb(255, 255, 255));&quot;&gt;&amp;lt;abstarct&amp;gt;&lt;/i&gt;&lt;/p&gt;&lt;p style=&quot;margin:0px;margin-top:4px;text-align:center;&quot;&gt;&lt;b&gt;PlantField&lt;/b&gt;&lt;/p&gt;&lt;hr size=&quot;1&quot; style=&quot;border-style:solid;&quot;&gt;&lt;p style=&quot;margin:0px;margin-left:4px;&quot;&gt;+ hp: int&lt;/p&gt;&lt;p style=&quot;margin:0px;margin-left:4px;&quot;&gt;+ maxHp&lt;/p&gt;&lt;hr size=&quot;1&quot; style=&quot;border-style:solid;&quot;&gt;&lt;p style=&quot;margin:0px;margin-left:4px;&quot;&gt;- feed(int value)&lt;/p&gt;&lt;p style=&quot;margin:0px;margin-left:4px;&quot;&gt;- heal(int value)&lt;/p&gt;&lt;p style=&quot;margin:0px;margin-left:4px;&quot;&gt;- isAlive(): boolean&lt;/p&gt;&lt;p style=&quot;margin:0px;margin-left:4px;&quot;&gt;- transform()&lt;/p&gt;&lt;p style=&quot;margin:0px;margin-left:4px;&quot;&gt;&amp;nbsp;&lt;/p&gt;&lt;p style=&quot;margin:0px;margin-left:4px;&quot;&gt;&lt;br&gt;&lt;/p&gt;" style="verticalAlign=top;align=left;overflow=fill;html=1;whiteSpace=wrap;" parent="1" vertex="1">
          <mxGeometry x="294" y="632.5" width="160" height="157.5" as="geometry" />
        </mxCell>
        <mxCell id="odKOxgNMxmCA9S5rexNY-29" value="&lt;p style=&quot;margin:0px;margin-top:4px;text-align:center;&quot;&gt;&lt;b&gt;Water&lt;/b&gt;&lt;/p&gt;&lt;hr size=&quot;1&quot; style=&quot;border-style:solid;&quot;&gt;&lt;p style=&quot;margin:0px;margin-left:4px;&quot;&gt;&lt;/p&gt;&lt;p style=&quot;margin:0px;margin-left:4px;&quot;&gt;&lt;br&gt;&lt;/p&gt;" style="verticalAlign=top;align=left;overflow=fill;html=1;whiteSpace=wrap;" parent="1" vertex="1">
          <mxGeometry x="-60" y="699" width="160" height="35" as="geometry" />
        </mxCell>
        <mxCell id="odKOxgNMxmCA9S5rexNY-30" value="Dry" style="swimlane;fontStyle=1;align=center;verticalAlign=top;childLayout=stackLayout;horizontal=1;startSize=26;horizontalStack=0;resizeParent=1;resizeParentMax=0;resizeLast=0;collapsible=1;marginBottom=0;whiteSpace=wrap;html=1;" parent="1" vertex="1">
          <mxGeometry x="110" y="699" width="160" height="60" as="geometry" />
        </mxCell>
        <mxCell id="odKOxgNMxmCA9S5rexNY-32" value="" style="line;strokeWidth=1;fillColor=none;align=left;verticalAlign=middle;spacingTop=-1;spacingLeft=3;spacingRight=3;rotatable=0;labelPosition=right;points=[];portConstraint=eastwest;strokeColor=inherit;" parent="odKOxgNMxmCA9S5rexNY-30" vertex="1">
          <mxGeometry y="26" width="160" height="8" as="geometry" />
        </mxCell>
        <mxCell id="odKOxgNMxmCA9S5rexNY-33" value="+ transform()" style="text;strokeColor=none;fillColor=none;align=left;verticalAlign=top;spacingLeft=4;spacingRight=4;overflow=hidden;rotatable=0;points=[[0,0.5],[1,0.5]];portConstraint=eastwest;whiteSpace=wrap;html=1;" parent="odKOxgNMxmCA9S5rexNY-30" vertex="1">
          <mxGeometry y="34" width="160" height="26" as="geometry" />
        </mxCell>
        <mxCell id="odKOxgNMxmCA9S5rexNY-39" value="" style="endArrow=diamondThin;endFill=1;endSize=24;html=1;rounded=0;exitX=0.5;exitY=0;exitDx=0;exitDy=0;entryX=0.19;entryY=1.005;entryDx=0;entryDy=0;entryPerimeter=0;" parent="1" source="odKOxgNMxmCA9S5rexNY-26" target="odKOxgNMxmCA9S5rexNY-10" edge="1">
          <mxGeometry width="160" relative="1" as="geometry">
            <mxPoint x="180" y="360" as="sourcePoint" />
            <mxPoint x="320" y="245" as="targetPoint" />
          </mxGeometry>
        </mxCell>
        <mxCell id="gPjoeom-E5kTU239pR5F-1" value="Grass" style="swimlane;fontStyle=1;align=center;verticalAlign=top;childLayout=stackLayout;horizontal=1;startSize=26;horizontalStack=0;resizeParent=1;resizeParentMax=0;resizeLast=0;collapsible=1;marginBottom=0;whiteSpace=wrap;html=1;" parent="1" vertex="1">
          <mxGeometry x="150" y="850" width="140" height="98" as="geometry" />
        </mxCell>
        <mxCell id="gPjoeom-E5kTU239pR5F-2" value="+ stealth: int=0&lt;div&gt;+ max_hp = 50&lt;/div&gt;" style="text;strokeColor=none;fillColor=none;align=left;verticalAlign=top;spacingLeft=4;spacingRight=4;overflow=hidden;rotatable=0;points=[[0,0.5],[1,0.5]];portConstraint=eastwest;whiteSpace=wrap;html=1;" parent="gPjoeom-E5kTU239pR5F-1" vertex="1">
          <mxGeometry y="26" width="140" height="64" as="geometry" />
        </mxCell>
        <mxCell id="gPjoeom-E5kTU239pR5F-3" value="" style="line;strokeWidth=1;fillColor=none;align=left;verticalAlign=middle;spacingTop=-1;spacingLeft=3;spacingRight=3;rotatable=0;labelPosition=right;points=[];portConstraint=eastwest;strokeColor=inherit;" parent="gPjoeom-E5kTU239pR5F-1" vertex="1">
          <mxGeometry y="90" width="140" height="8" as="geometry" />
        </mxCell>
        <mxCell id="gPjoeom-E5kTU239pR5F-5" value="Bush" style="swimlane;fontStyle=1;align=center;verticalAlign=top;childLayout=stackLayout;horizontal=1;startSize=26;horizontalStack=0;resizeParent=1;resizeParentMax=0;resizeLast=0;collapsible=1;marginBottom=0;whiteSpace=wrap;html=1;" parent="1" vertex="1">
          <mxGeometry x="300" y="850" width="160" height="88" as="geometry" />
        </mxCell>
        <mxCell id="gPjoeom-E5kTU239pR5F-6" value="+ stealth: int = 5&lt;div&gt;+ max_hp = 100&lt;/div&gt;" style="text;strokeColor=none;fillColor=none;align=left;verticalAlign=top;spacingLeft=4;spacingRight=4;overflow=hidden;rotatable=0;points=[[0,0.5],[1,0.5]];portConstraint=eastwest;whiteSpace=wrap;html=1;" parent="gPjoeom-E5kTU239pR5F-5" vertex="1">
          <mxGeometry y="26" width="160" height="54" as="geometry" />
        </mxCell>
        <mxCell id="gPjoeom-E5kTU239pR5F-7" value="" style="line;strokeWidth=1;fillColor=none;align=left;verticalAlign=middle;spacingTop=-1;spacingLeft=3;spacingRight=3;rotatable=0;labelPosition=right;points=[];portConstraint=eastwest;strokeColor=inherit;" parent="gPjoeom-E5kTU239pR5F-5" vertex="1">
          <mxGeometry y="80" width="160" height="8" as="geometry" />
        </mxCell>
        <mxCell id="gPjoeom-E5kTU239pR5F-9" value="Tree" style="swimlane;fontStyle=1;align=center;verticalAlign=top;childLayout=stackLayout;horizontal=1;startSize=26;horizontalStack=0;resizeParent=1;resizeParentMax=0;resizeLast=0;collapsible=1;marginBottom=0;whiteSpace=wrap;html=1;" parent="1" vertex="1">
          <mxGeometry x="470" y="850" width="160" height="78" as="geometry" />
        </mxCell>
        <mxCell id="gPjoeom-E5kTU239pR5F-10" value="+ stealth = 10&lt;div&gt;+ max_hp = 150&lt;/div&gt;" style="text;strokeColor=none;fillColor=none;align=left;verticalAlign=top;spacingLeft=4;spacingRight=4;overflow=hidden;rotatable=0;points=[[0,0.5],[1,0.5]];portConstraint=eastwest;whiteSpace=wrap;html=1;" parent="gPjoeom-E5kTU239pR5F-9" vertex="1">
          <mxGeometry y="26" width="160" height="44" as="geometry" />
        </mxCell>
        <mxCell id="gPjoeom-E5kTU239pR5F-11" value="" style="line;strokeWidth=1;fillColor=none;align=left;verticalAlign=middle;spacingTop=-1;spacingLeft=3;spacingRight=3;rotatable=0;labelPosition=right;points=[];portConstraint=eastwest;strokeColor=inherit;" parent="gPjoeom-E5kTU239pR5F-9" vertex="1">
          <mxGeometry y="70" width="160" height="8" as="geometry" />
        </mxCell>
        <mxCell id="jo2Joi-jsEzWObLivGeN-77" style="edgeStyle=orthogonalEdgeStyle;rounded=0;orthogonalLoop=1;jettySize=auto;html=1;exitX=1;exitY=0.75;exitDx=0;exitDy=0;entryX=0;entryY=0.5;entryDx=0;entryDy=0;" parent="1" source="4IW04uMM6fYaThRrs5CO-7" target="odKOxgNMxmCA9S5rexNY-26" edge="1">
          <mxGeometry relative="1" as="geometry" />
        </mxCell>
        <mxCell id="4IW04uMM6fYaThRrs5CO-7" value="&lt;p style=&quot;margin:0px;margin-top:4px;text-align:center;&quot;&gt;&lt;i&gt;&amp;lt;abstarct&amp;gt;&lt;/i&gt;&lt;/p&gt;&lt;p style=&quot;margin:0px;margin-top:4px;text-align:center;&quot;&gt;&lt;b&gt;Entity&lt;/b&gt;&lt;/p&gt;&lt;hr size=&quot;1&quot; style=&quot;border-style:solid;&quot;&gt;&lt;p style=&quot;margin:0px;margin-left:4px;&quot;&gt;- pos: Point&lt;/p&gt;&lt;p style=&quot;margin:0px;margin-left:4px;&quot;&gt;- speed: Int&lt;/p&gt;&lt;p style=&quot;margin:0px;margin-left:4px;&quot;&gt;- destPos: Point&lt;/p&gt;&lt;hr size=&quot;1&quot; style=&quot;border-style:solid;&quot;&gt;&lt;p style=&quot;margin:0px;margin-left:4px;&quot;&gt;+ Entity()&lt;/p&gt;&lt;p style=&quot;margin:0px;margin-left:4px;&quot;&gt;+ getPos(): Point&lt;br&gt;&lt;/p&gt;&lt;p style=&quot;margin:0px;margin-left:4px;&quot;&gt;+ move()&lt;/p&gt;" style="verticalAlign=top;align=left;overflow=fill;html=1;whiteSpace=wrap;" parent="1" vertex="1">
          <mxGeometry x="-190" y="183" width="190" height="167" as="geometry" />
        </mxCell>
        <mxCell id="4IW04uMM6fYaThRrs5CO-8" value="&lt;p style=&quot;margin:0px;margin-top:4px;text-align:center;&quot;&gt;&lt;i&gt;&amp;lt;abstarct&amp;gt;&lt;/i&gt;&lt;b&gt;&lt;/b&gt;&lt;/p&gt;&lt;p style=&quot;margin:0px;margin-top:4px;text-align:center;&quot;&gt;&lt;b&gt;Human&lt;/b&gt;&lt;/p&gt;&lt;hr size=&quot;1&quot; style=&quot;border-style:solid;&quot;&gt;&lt;p style=&quot;margin:0px;margin-left:4px;&quot;&gt;&lt;br&gt;&lt;/p&gt;&lt;hr size=&quot;1&quot; style=&quot;border-style:solid;&quot;&gt;&lt;p style=&quot;margin:0px;margin-left:4px;&quot;&gt;&lt;br&gt;&lt;/p&gt;" style="verticalAlign=top;align=left;overflow=fill;html=1;whiteSpace=wrap;" parent="1" vertex="1">
          <mxGeometry x="-983" y="413" width="190" height="80" as="geometry" />
        </mxCell>
        <mxCell id="4IW04uMM6fYaThRrs5CO-9" value="&lt;p style=&quot;margin:0px;margin-top:4px;text-align:center;&quot;&gt;&lt;b&gt;Visitor&lt;/b&gt;&lt;/p&gt;&lt;hr size=&quot;1&quot; style=&quot;border-style:solid;&quot;&gt;&lt;p style=&quot;margin:0px;margin-left:4px;&quot;&gt;- happiness: Int&lt;br&gt;&lt;/p&gt;&lt;hr size=&quot;1&quot; style=&quot;border-style:solid;&quot;&gt;&lt;p style=&quot;margin:0px;margin-left:4px;&quot;&gt;+ Visitor()&lt;/p&gt;&lt;p style=&quot;margin:0px;margin-left:4px;&quot;&gt;+ setHappier()&lt;/p&gt;&lt;p style=&quot;margin:0px;margin-left:4px;&quot;&gt;+ getHappiness()&lt;/p&gt;" style="verticalAlign=top;align=left;overflow=fill;html=1;whiteSpace=wrap;" parent="1" vertex="1">
          <mxGeometry x="-1230" y="590" width="180" height="110" as="geometry" />
        </mxCell>
        <mxCell id="4IW04uMM6fYaThRrs5CO-10" value="&lt;p style=&quot;margin:0px;margin-top:4px;text-align:center;&quot;&gt;&lt;b&gt;Keeper&lt;/b&gt;&lt;/p&gt;&lt;hr size=&quot;1&quot; style=&quot;border-style:solid;&quot;&gt;&lt;p style=&quot;margin:0px;margin-left:4px;&quot;&gt;+ isAlive: Boolean&lt;br&gt;&lt;/p&gt;&lt;hr size=&quot;1&quot; style=&quot;border-style:solid;&quot;&gt;&lt;p style=&quot;margin:0px;margin-left:4px;&quot;&gt;+ Keeper()&lt;br&gt;+ setTarget(target: Entity)&lt;/p&gt;&lt;p style=&quot;margin:0px;margin-left:4px;&quot;&gt;+ shoot(target: Entity)&lt;/p&gt;" style="verticalAlign=top;align=left;overflow=fill;html=1;whiteSpace=wrap;" parent="1" vertex="1">
          <mxGeometry x="-1006" y="590" width="190" height="110" as="geometry" />
        </mxCell>
        <mxCell id="4IW04uMM6fYaThRrs5CO-11" value="&lt;p style=&quot;margin:0px;margin-top:4px;text-align:center;&quot;&gt;&lt;b&gt;Poacher&lt;/b&gt;&lt;/p&gt;&lt;hr size=&quot;1&quot; style=&quot;border-style:solid;&quot;&gt;&lt;p style=&quot;margin:0px;margin-left:4px;&quot;&gt;+ isAlive: Boolean&lt;br&gt;&lt;/p&gt;&lt;hr size=&quot;1&quot; style=&quot;border-style:solid;&quot;&gt;&lt;p style=&quot;margin:0px;margin-left:4px;&quot;&gt;+ Poacher()&lt;br&gt;+ setTarget(target: Animal)&lt;/p&gt;&lt;p style=&quot;margin:0px;margin-left:4px;&quot;&gt;+ shoot(target: Entity)&lt;/p&gt;" style="verticalAlign=top;align=left;overflow=fill;html=1;whiteSpace=wrap;" parent="1" vertex="1">
          <mxGeometry x="-793" y="590" width="190" height="110" as="geometry" />
        </mxCell>
        <mxCell id="4IW04uMM6fYaThRrs5CO-12" value="&lt;p style=&quot;margin:0px;margin-top:4px;text-align:center;&quot;&gt;&lt;b&gt;Point&lt;/b&gt;&lt;/p&gt;&lt;hr size=&quot;1&quot; style=&quot;border-style:solid;&quot;&gt;&lt;p style=&quot;margin:0px;margin-left:4px;&quot;&gt;+ x: int&lt;br&gt;&lt;/p&gt;&lt;p style=&quot;margin:0px;margin-left:4px;&quot;&gt;+ y: int&lt;/p&gt;&lt;hr size=&quot;1&quot; style=&quot;border-style:solid;&quot;&gt;&lt;p style=&quot;margin:0px;margin-left:4px;&quot;&gt;+ Point()&lt;/p&gt;&lt;p style=&quot;margin:0px;margin-left:4px;&quot;&gt;+ setX(x: Int)&lt;/p&gt;&lt;p style=&quot;margin:0px;margin-left:4px;&quot;&gt;+ setY(y: Int)&lt;/p&gt;" style="verticalAlign=top;align=left;overflow=fill;html=1;whiteSpace=wrap;" parent="1" vertex="1">
          <mxGeometry x="-550" y="80" width="190" height="160" as="geometry" />
        </mxCell>
        <mxCell id="4IW04uMM6fYaThRrs5CO-13" value="" style="endArrow=diamondThin;endFill=1;endSize=24;html=1;rounded=0;entryX=-0.013;entryY=0.567;entryDx=0;entryDy=0;entryPerimeter=0;" parent="1" target="odKOxgNMxmCA9S5rexNY-2" edge="1">
          <mxGeometry width="160" relative="1" as="geometry">
            <mxPoint y="260" as="sourcePoint" />
            <mxPoint x="160" y="260" as="targetPoint" />
            <Array as="points">
              <mxPoint x="130" y="60" />
            </Array>
          </mxGeometry>
        </mxCell>
        <mxCell id="4IW04uMM6fYaThRrs5CO-19" value="" style="endArrow=open;endFill=1;endSize=12;html=1;rounded=0;entryX=-0.002;entryY=0.37;entryDx=0;entryDy=0;entryPerimeter=0;" parent="1" target="4IW04uMM6fYaThRrs5CO-7" edge="1">
          <mxGeometry width="160" relative="1" as="geometry">
            <mxPoint x="-360" y="150" as="sourcePoint" />
            <mxPoint x="-200" y="150" as="targetPoint" />
          </mxGeometry>
        </mxCell>
        <mxCell id="4IW04uMM6fYaThRrs5CO-50" value="&lt;&lt;abstract&gt;&gt;&#xa;Animal&#xa;" style="swimlane;fontStyle=0;align=center;verticalAlign=top;childLayout=stackLayout;horizontal=1;startSize=40;horizontalStack=0;resizeParent=1;resizeLast=0;collapsible=1;marginBottom=0;rounded=0;shadow=0;strokeWidth=1;" parent="1" vertex="1">
          <mxGeometry x="-440" y="424" width="160" height="310" as="geometry">
            <mxRectangle x="550" y="140" width="160" height="26" as="alternateBounds" />
          </mxGeometry>
        </mxCell>
        <mxCell id="4IW04uMM6fYaThRrs5CO-51" value="-age:int" style="text;align=left;verticalAlign=top;spacingLeft=4;spacingRight=4;overflow=hidden;rotatable=0;points=[[0,0.5],[1,0.5]];portConstraint=eastwest;rounded=0;shadow=0;html=0;" parent="4IW04uMM6fYaThRrs5CO-50" vertex="1">
          <mxGeometry y="40" width="160" height="20" as="geometry" />
        </mxCell>
        <mxCell id="4IW04uMM6fYaThRrs5CO-52" value="-gender:Gender(Enum)" style="text;align=left;verticalAlign=top;spacingLeft=4;spacingRight=4;overflow=hidden;rotatable=0;points=[[0,0.5],[1,0.5]];portConstraint=eastwest;rounded=0;shadow=0;html=0;" parent="4IW04uMM6fYaThRrs5CO-50" vertex="1">
          <mxGeometry y="60" width="160" height="20" as="geometry" />
        </mxCell>
        <mxCell id="4IW04uMM6fYaThRrs5CO-53" value="-health:int" style="text;align=left;verticalAlign=top;spacingLeft=4;spacingRight=4;overflow=hidden;rotatable=0;points=[[0,0.5],[1,0.5]];portConstraint=eastwest;rounded=0;shadow=0;html=0;" parent="4IW04uMM6fYaThRrs5CO-50" vertex="1">
          <mxGeometry y="80" width="160" height="20" as="geometry" />
        </mxCell>
        <mxCell id="4IW04uMM6fYaThRrs5CO-54" value="-foodLevel:int" style="text;align=left;verticalAlign=top;spacingLeft=4;spacingRight=4;overflow=hidden;rotatable=0;points=[[0,0.5],[1,0.5]];portConstraint=eastwest;rounded=0;shadow=0;html=0;" parent="4IW04uMM6fYaThRrs5CO-50" vertex="1">
          <mxGeometry y="100" width="160" height="20" as="geometry" />
        </mxCell>
        <mxCell id="4IW04uMM6fYaThRrs5CO-55" value="-waterLevel:int" style="text;align=left;verticalAlign=top;spacingLeft=4;spacingRight=4;overflow=hidden;rotatable=0;points=[[0,0.5],[1,0.5]];portConstraint=eastwest;rounded=0;shadow=0;html=0;" parent="4IW04uMM6fYaThRrs5CO-50" vertex="1">
          <mxGeometry y="120" width="160" height="20" as="geometry" />
        </mxCell>
        <mxCell id="4IW04uMM6fYaThRrs5CO-56" value="-maxAge:int" style="text;align=left;verticalAlign=top;spacingLeft=4;spacingRight=4;overflow=hidden;rotatable=0;points=[[0,0.5],[1,0.5]];portConstraint=eastwest;rounded=0;shadow=0;html=0;" parent="4IW04uMM6fYaThRrs5CO-50" vertex="1">
          <mxGeometry y="140" width="160" height="20" as="geometry" />
        </mxCell>
        <mxCell id="4IW04uMM6fYaThRrs5CO-57" value="-memory:List&lt;Tile&gt;" style="text;align=left;verticalAlign=top;spacingLeft=4;spacingRight=4;overflow=hidden;rotatable=0;points=[[0,0.5],[1,0.5]];portConstraint=eastwest;rounded=0;shadow=0;html=0;" parent="4IW04uMM6fYaThRrs5CO-50" vertex="1">
          <mxGeometry y="160" width="160" height="20" as="geometry" />
        </mxCell>
        <mxCell id="4IW04uMM6fYaThRrs5CO-58" value="" style="line;html=1;strokeWidth=1;align=left;verticalAlign=middle;spacingTop=-1;spacingLeft=3;spacingRight=3;rotatable=0;labelPosition=right;points=[];portConstraint=eastwest;" parent="4IW04uMM6fYaThRrs5CO-50" vertex="1">
          <mxGeometry y="180" width="160" height="40" as="geometry" />
        </mxCell>
        <mxCell id="jo2Joi-jsEzWObLivGeN-78" value="+Animal()" style="text;align=left;verticalAlign=top;spacingLeft=4;spacingRight=4;overflow=hidden;rotatable=0;points=[[0,0.5],[1,0.5]];portConstraint=eastwest;" parent="4IW04uMM6fYaThRrs5CO-50" vertex="1">
          <mxGeometry y="220" width="160" height="20" as="geometry" />
        </mxCell>
        <mxCell id="4IW04uMM6fYaThRrs5CO-59" value="+ageUp():void" style="text;align=left;verticalAlign=top;spacingLeft=4;spacingRight=4;overflow=hidden;rotatable=0;points=[[0,0.5],[1,0.5]];portConstraint=eastwest;" parent="4IW04uMM6fYaThRrs5CO-50" vertex="1">
          <mxGeometry y="240" width="160" height="20" as="geometry" />
        </mxCell>
        <mxCell id="4IW04uMM6fYaThRrs5CO-60" value="+drink():void" style="text;align=left;verticalAlign=top;spacingLeft=4;spacingRight=4;overflow=hidden;rotatable=0;points=[[0,0.5],[1,0.5]];portConstraint=eastwest;" parent="4IW04uMM6fYaThRrs5CO-50" vertex="1">
          <mxGeometry y="260" width="160" height="20" as="geometry" />
        </mxCell>
        <mxCell id="4IW04uMM6fYaThRrs5CO-61" value="+isAlive():bool" style="text;align=left;verticalAlign=top;spacingLeft=4;spacingRight=4;overflow=hidden;rotatable=0;points=[[0,0.5],[1,0.5]];portConstraint=eastwest;" parent="4IW04uMM6fYaThRrs5CO-50" vertex="1">
          <mxGeometry y="280" width="160" height="20" as="geometry" />
        </mxCell>
        <mxCell id="jo2Joi-jsEzWObLivGeN-62" style="edgeStyle=orthogonalEdgeStyle;rounded=0;orthogonalLoop=1;jettySize=auto;html=1;exitX=1;exitY=0.25;exitDx=0;exitDy=0;entryX=0;entryY=0.5;entryDx=0;entryDy=0;" parent="1" source="4IW04uMM6fYaThRrs5CO-62" target="4IW04uMM6fYaThRrs5CO-51" edge="1">
          <mxGeometry relative="1" as="geometry" />
        </mxCell>
        <mxCell id="4IW04uMM6fYaThRrs5CO-62" value="&amp;lt;&amp;lt;enum&amp;gt;&amp;gt;&lt;div&gt;&lt;b&gt;Gender&lt;/b&gt;&lt;/div&gt;" style="swimlane;fontStyle=0;childLayout=stackLayout;horizontal=1;startSize=26;fillColor=none;horizontalStack=0;resizeParent=1;resizeParentMax=0;resizeLast=0;collapsible=1;marginBottom=0;whiteSpace=wrap;html=1;" parent="1" vertex="1">
          <mxGeometry x="-670" y="480" width="140" height="78" as="geometry" />
        </mxCell>
        <mxCell id="4IW04uMM6fYaThRrs5CO-63" value="Male" style="text;strokeColor=none;fillColor=none;align=left;verticalAlign=top;spacingLeft=4;spacingRight=4;overflow=hidden;rotatable=0;points=[[0,0.5],[1,0.5]];portConstraint=eastwest;whiteSpace=wrap;html=1;" parent="4IW04uMM6fYaThRrs5CO-62" vertex="1">
          <mxGeometry y="26" width="140" height="26" as="geometry" />
        </mxCell>
        <mxCell id="4IW04uMM6fYaThRrs5CO-64" value="Female" style="text;strokeColor=none;fillColor=none;align=left;verticalAlign=top;spacingLeft=4;spacingRight=4;overflow=hidden;rotatable=0;points=[[0,0.5],[1,0.5]];portConstraint=eastwest;whiteSpace=wrap;html=1;" parent="4IW04uMM6fYaThRrs5CO-62" vertex="1">
          <mxGeometry y="52" width="140" height="26" as="geometry" />
        </mxCell>
        <mxCell id="4IW04uMM6fYaThRrs5CO-66" value="&lt;p style=&quot;margin:0px;margin-top:4px;text-align:center;&quot;&gt;&amp;lt;&amp;lt;abstract&amp;gt;&amp;gt;&lt;/p&gt;&lt;p style=&quot;margin:0px;margin-top:4px;text-align:center;&quot;&gt;&lt;i&gt;&lt;b&gt;Herbivore&lt;/b&gt;&lt;/i&gt;&lt;/p&gt;&lt;hr size=&quot;1&quot; style=&quot;border-style:solid;&quot;&gt;&lt;p style=&quot;margin:0px;margin-left:4px;&quot;&gt;&lt;br&gt;&lt;/p&gt;&lt;hr size=&quot;1&quot; style=&quot;border-style:solid;&quot;&gt;&lt;p style=&quot;margin:0px;margin-left:4px;&quot;&gt;+ graze():void&lt;/p&gt;" style="verticalAlign=top;align=left;overflow=fill;html=1;whiteSpace=wrap;" parent="1" vertex="1">
          <mxGeometry x="-620" y="820" width="160" height="100" as="geometry" />
        </mxCell>
        <mxCell id="4IW04uMM6fYaThRrs5CO-67" value="&lt;p style=&quot;margin:0px;margin-top:4px;text-align:center;&quot;&gt;&amp;lt;&amp;lt;abstract&amp;gt;&amp;gt;&lt;/p&gt;&lt;p style=&quot;margin:0px;margin-top:4px;text-align:center;&quot;&gt;&lt;i&gt;&lt;b&gt;Carnivore&lt;/b&gt;&lt;/i&gt;&lt;/p&gt;&lt;hr size=&quot;1&quot; style=&quot;border-style:solid;&quot;&gt;&lt;p style=&quot;margin:0px;margin-left:4px;&quot;&gt;&lt;br&gt;&lt;/p&gt;&lt;hr size=&quot;1&quot; style=&quot;border-style:solid;&quot;&gt;&lt;p style=&quot;margin:0px;margin-left:4px;&quot;&gt;+ hunt():void&lt;/p&gt;" style="verticalAlign=top;align=left;overflow=fill;html=1;whiteSpace=wrap;" parent="1" vertex="1">
          <mxGeometry x="-250" y="820" width="160" height="100" as="geometry" />
        </mxCell>
        <mxCell id="4IW04uMM6fYaThRrs5CO-70" value="&lt;p style=&quot;margin:0px;margin-top:4px;text-align:center;&quot;&gt;&lt;b&gt;Elephant&lt;/b&gt;&lt;/p&gt;&lt;hr size=&quot;1&quot; style=&quot;border-style:solid;&quot;&gt;&lt;p style=&quot;margin:0px;margin-left:4px;&quot;&gt;&lt;br&gt;&lt;/p&gt;&lt;hr size=&quot;1&quot; style=&quot;border-style:solid;&quot;&gt;&lt;p style=&quot;margin:0px;margin-left:4px;&quot;&gt;&lt;br&gt;&lt;/p&gt;" style="verticalAlign=top;align=left;overflow=fill;html=1;whiteSpace=wrap;" parent="1" vertex="1">
          <mxGeometry x="-720" y="960" width="160" height="70" as="geometry" />
        </mxCell>
        <mxCell id="4IW04uMM6fYaThRrs5CO-71" value="&lt;p style=&quot;margin:0px;margin-top:4px;text-align:center;&quot;&gt;&lt;b&gt;Zebra&lt;/b&gt;&lt;/p&gt;&lt;hr size=&quot;1&quot; style=&quot;border-style:solid;&quot;&gt;&lt;p style=&quot;margin:0px;margin-left:4px;&quot;&gt;&lt;br&gt;&lt;/p&gt;&lt;hr size=&quot;1&quot; style=&quot;border-style:solid;&quot;&gt;&lt;p style=&quot;margin:0px;margin-left:4px;&quot;&gt;&lt;br&gt;&lt;/p&gt;" style="verticalAlign=top;align=left;overflow=fill;html=1;whiteSpace=wrap;" parent="1" vertex="1">
          <mxGeometry x="-500" y="960" width="160" height="70" as="geometry" />
        </mxCell>
        <mxCell id="4IW04uMM6fYaThRrs5CO-72" value="&lt;p style=&quot;margin:0px;margin-top:4px;text-align:center;&quot;&gt;&lt;b&gt;Hyena&lt;/b&gt;&lt;/p&gt;&lt;p style=&quot;margin:0px;margin-left:4px;&quot;&gt;&lt;br&gt;&lt;/p&gt;&lt;hr size=&quot;1&quot; style=&quot;border-style:solid;&quot;&gt;&lt;p style=&quot;margin:0px;margin-left:4px;&quot;&gt;&lt;br&gt;&lt;/p&gt;" style="verticalAlign=top;align=left;overflow=fill;html=1;whiteSpace=wrap;" parent="1" vertex="1">
          <mxGeometry x="-50" y="960" width="160" height="70" as="geometry" />
        </mxCell>
        <mxCell id="4IW04uMM6fYaThRrs5CO-73" value="&lt;p style=&quot;margin:0px;margin-top:4px;text-align:center;&quot;&gt;&lt;b&gt;Lion&lt;/b&gt;&lt;/p&gt;&lt;hr size=&quot;1&quot; style=&quot;border-style:solid;&quot;&gt;&lt;p style=&quot;margin:0px;margin-left:4px;&quot;&gt;&lt;br&gt;&lt;/p&gt;&lt;hr size=&quot;1&quot; style=&quot;border-style:solid;&quot;&gt;&lt;p style=&quot;margin:0px;margin-left:4px;&quot;&gt;&lt;br&gt;&lt;/p&gt;" style="verticalAlign=top;align=left;overflow=fill;html=1;whiteSpace=wrap;" parent="1" vertex="1">
          <mxGeometry x="-260" y="960" width="160" height="70" as="geometry" />
        </mxCell>
        <mxCell id="4IW04uMM6fYaThRrs5CO-74" value="" style="endArrow=block;endSize=16;endFill=0;html=1;rounded=0;exitX=0.5;exitY=0;exitDx=0;exitDy=0;entryX=0.25;entryY=1;entryDx=0;entryDy=0;" parent="1" target="4IW04uMM6fYaThRrs5CO-66" edge="1">
          <mxGeometry width="160" relative="1" as="geometry">
            <mxPoint x="-670" y="960" as="sourcePoint" />
            <mxPoint x="-510" y="870" as="targetPoint" />
            <Array as="points">
              <mxPoint x="-670" y="940" />
              <mxPoint x="-580" y="940" />
            </Array>
          </mxGeometry>
        </mxCell>
        <mxCell id="4IW04uMM6fYaThRrs5CO-75" value="" style="endArrow=block;endSize=16;endFill=0;html=1;rounded=0;exitX=0.5;exitY=0;exitDx=0;exitDy=0;entryX=0.25;entryY=1;entryDx=0;entryDy=0;" parent="1" target="4IW04uMM6fYaThRrs5CO-67" edge="1">
          <mxGeometry width="160" relative="1" as="geometry">
            <mxPoint x="-230" y="960" as="sourcePoint" />
            <mxPoint x="-140" y="920" as="targetPoint" />
            <Array as="points">
              <mxPoint x="-230" y="940" />
              <mxPoint x="-210" y="940" />
            </Array>
          </mxGeometry>
        </mxCell>
        <mxCell id="4IW04uMM6fYaThRrs5CO-76" value="" style="endArrow=block;endSize=16;endFill=0;html=1;rounded=0;exitX=0.5;exitY=0;exitDx=0;exitDy=0;entryX=0.626;entryY=0.99;entryDx=0;entryDy=0;entryPerimeter=0;" parent="1" target="4IW04uMM6fYaThRrs5CO-66" edge="1">
          <mxGeometry width="160" relative="1" as="geometry">
            <mxPoint x="-420" y="960" as="sourcePoint" />
            <mxPoint x="-330" y="920" as="targetPoint" />
            <Array as="points">
              <mxPoint x="-420" y="940" />
              <mxPoint x="-520" y="940" />
            </Array>
          </mxGeometry>
        </mxCell>
        <mxCell id="4IW04uMM6fYaThRrs5CO-77" value="" style="endArrow=block;endSize=16;endFill=0;html=1;rounded=0;exitX=0.5;exitY=0;exitDx=0;exitDy=0;entryX=0.628;entryY=0.997;entryDx=0;entryDy=0;entryPerimeter=0;" parent="1" target="4IW04uMM6fYaThRrs5CO-67" edge="1">
          <mxGeometry width="160" relative="1" as="geometry">
            <mxPoint x="30" y="960" as="sourcePoint" />
            <mxPoint x="-70" y="919" as="targetPoint" />
            <Array as="points">
              <mxPoint x="30" y="940" />
              <mxPoint x="-150" y="940" />
            </Array>
          </mxGeometry>
        </mxCell>
        <mxCell id="4IW04uMM6fYaThRrs5CO-78" value="&lt;p style=&quot;margin:0px;margin-top:4px;text-align:center;&quot;&gt;&lt;b&gt;Jeep&lt;/b&gt;&lt;/p&gt;&lt;hr size=&quot;1&quot; style=&quot;border-style:solid;&quot;&gt;&lt;p style=&quot;margin:0px;margin-left:4px;&quot;&gt;&lt;br&gt;&lt;/p&gt;&lt;p style=&quot;margin:0px;margin-left:4px;&quot;&gt;-maintenanceCost:int&lt;/p&gt;&lt;p style=&quot;margin:0px;margin-left:4px;&quot;&gt;-passengers:List&amp;lt;People&amp;gt;&lt;/p&gt;&lt;p style=&quot;margin:0px;margin-left:4px;&quot;&gt;&lt;br&gt;&lt;/p&gt;&lt;hr size=&quot;1&quot; style=&quot;border-style:solid;&quot;&gt;&lt;p style=&quot;margin:0px;margin-left:4px;&quot;&gt;&lt;br&gt;&lt;/p&gt;&lt;p style=&quot;margin:0px;margin-left:4px;&quot;&gt;+pickUp(List&amp;lt;People&amp;gt;):void&lt;/p&gt;&lt;p style=&quot;margin:0px;margin-left:4px;&quot;&gt;+dropOff():void&lt;/p&gt;&lt;p style=&quot;margin:0px;margin-left:4px;&quot;&gt;&lt;br&gt;&lt;/p&gt;" style="verticalAlign=top;align=left;overflow=fill;html=1;whiteSpace=wrap;" parent="1" vertex="1">
          <mxGeometry x="-190" y="415" width="160" height="170" as="geometry" />
        </mxCell>
        <mxCell id="4IW04uMM6fYaThRrs5CO-83" value="" style="endArrow=diamondThin;endFill=1;endSize=24;html=1;rounded=0;entryX=-0.005;entryY=0.065;entryDx=0;entryDy=0;entryPerimeter=0;" parent="1" target="odKOxgNMxmCA9S5rexNY-10" edge="1">
          <mxGeometry width="160" relative="1" as="geometry">
            <mxPoint y="280" as="sourcePoint" />
            <mxPoint x="160" y="280" as="targetPoint" />
          </mxGeometry>
        </mxCell>
        <mxCell id="C4WSW1BXT8Q_LCxrXvv5-1" value="&lt;p style=&quot;margin:0px;margin-top:4px;text-align:center;&quot;&gt;&lt;b&gt;Road&lt;/b&gt;&lt;/p&gt;&lt;hr size=&quot;1&quot; style=&quot;border-style:solid;&quot;&gt;&lt;p style=&quot;margin:0px;margin-left:4px;&quot;&gt;+ directions: Tuple&amp;lt;Direction, Direction&amp;gt;&lt;br&gt;&lt;/p&gt;&lt;hr size=&quot;1&quot; style=&quot;border-style:solid;&quot;&gt;&lt;p style=&quot;margin:0px;margin-left:4px;&quot;&gt;&lt;br&gt;&lt;/p&gt;" style="verticalAlign=top;align=left;overflow=fill;html=1;whiteSpace=wrap;" parent="1" vertex="1">
          <mxGeometry x="530" y="570" width="190" height="70" as="geometry" />
        </mxCell>
        <mxCell id="C4WSW1BXT8Q_LCxrXvv5-3" value="&lt;p style=&quot;margin:0px;margin-top:4px;text-align:center;&quot;&gt;&lt;i&gt;&amp;lt;&amp;lt;Enum&amp;gt;&amp;gt;&lt;/i&gt;&lt;br&gt;&lt;b&gt;Direction&lt;/b&gt;&lt;/p&gt;&lt;hr size=&quot;1&quot; style=&quot;border-style:solid;&quot;&gt;&lt;p style=&quot;margin:0px;margin-left:4px;&quot;&gt;EAST&lt;/p&gt;&lt;p style=&quot;margin:0px;margin-left:4px;&quot;&gt;WEST&lt;/p&gt;&lt;p style=&quot;margin:0px;margin-left:4px;&quot;&gt;SOUTH&lt;/p&gt;&lt;p style=&quot;margin:0px;margin-left:4px;&quot;&gt;NORTH&lt;/p&gt;&lt;hr size=&quot;1&quot; style=&quot;border-style:solid;&quot;&gt;&lt;p style=&quot;margin:0px;margin-left:4px;&quot;&gt;&lt;br&gt;&lt;/p&gt;" style="verticalAlign=top;align=left;overflow=fill;html=1;whiteSpace=wrap;" parent="1" vertex="1">
          <mxGeometry x="637" y="680" width="190" height="140" as="geometry" />
        </mxCell>
        <mxCell id="jo2Joi-jsEzWObLivGeN-38" value="" style="endArrow=none;html=1;rounded=0;entryX=0;entryY=0.5;entryDx=0;entryDy=0;exitX=0.5;exitY=0;exitDx=0;exitDy=0;" parent="1" source="4IW04uMM6fYaThRrs5CO-50" target="jo2Joi-jsEzWObLivGeN-40" edge="1">
          <mxGeometry width="50" height="50" relative="1" as="geometry">
            <mxPoint x="-360" y="420" as="sourcePoint" />
            <mxPoint x="-260" y="330" as="targetPoint" />
            <Array as="points">
              <mxPoint x="-360" y="325" />
            </Array>
          </mxGeometry>
        </mxCell>
        <mxCell id="jo2Joi-jsEzWObLivGeN-40" value="" style="triangle;whiteSpace=wrap;html=1;" parent="1" vertex="1">
          <mxGeometry x="-210" y="315" width="20" height="20" as="geometry" />
        </mxCell>
        <mxCell id="jo2Joi-jsEzWObLivGeN-41" value="" style="endArrow=none;html=1;rounded=0;entryX=0;entryY=0.5;entryDx=0;entryDy=0;" parent="1" target="jo2Joi-jsEzWObLivGeN-42" edge="1">
          <mxGeometry width="50" height="50" relative="1" as="geometry">
            <mxPoint x="-110" y="415" as="sourcePoint" />
            <mxPoint x="-110" y="380" as="targetPoint" />
          </mxGeometry>
        </mxCell>
        <mxCell id="jo2Joi-jsEzWObLivGeN-42" value="" style="triangle;whiteSpace=wrap;html=1;rotation=-90;" parent="1" vertex="1">
          <mxGeometry x="-120" y="350" width="20" height="20" as="geometry" />
        </mxCell>
        <mxCell id="jo2Joi-jsEzWObLivGeN-43" value="" style="endArrow=none;html=1;rounded=0;entryX=0;entryY=0.5;entryDx=0;entryDy=0;" parent="1" target="jo2Joi-jsEzWObLivGeN-44" edge="1">
          <mxGeometry width="50" height="50" relative="1" as="geometry">
            <mxPoint x="-900" y="413" as="sourcePoint" />
            <mxPoint x="-220" y="280" as="targetPoint" />
            <Array as="points">
              <mxPoint x="-900" y="280" />
            </Array>
          </mxGeometry>
        </mxCell>
        <mxCell id="jo2Joi-jsEzWObLivGeN-44" value="" style="triangle;whiteSpace=wrap;html=1;" parent="1" vertex="1">
          <mxGeometry x="-210" y="265" width="20" height="20" as="geometry" />
        </mxCell>
        <mxCell id="jo2Joi-jsEzWObLivGeN-56" value="" style="endArrow=block;endSize=16;endFill=0;html=1;rounded=0;exitX=0.552;exitY=-0.014;exitDx=0;exitDy=0;exitPerimeter=0;" parent="1" source="4IW04uMM6fYaThRrs5CO-66" edge="1">
          <mxGeometry x="-0.125" width="160" relative="1" as="geometry">
            <mxPoint x="-550" y="780" as="sourcePoint" />
            <mxPoint x="-360" y="730" as="targetPoint" />
            <Array as="points">
              <mxPoint x="-532" y="800" />
              <mxPoint x="-360" y="800" />
            </Array>
            <mxPoint as="offset" />
          </mxGeometry>
        </mxCell>
        <mxCell id="jo2Joi-jsEzWObLivGeN-57" value="" style="endArrow=block;endSize=16;endFill=0;html=1;rounded=0;exitX=0.5;exitY=0;exitDx=0;exitDy=0;" parent="1" source="4IW04uMM6fYaThRrs5CO-67" edge="1">
          <mxGeometry x="-0.125" width="160" relative="1" as="geometry">
            <mxPoint x="-272" y="799" as="sourcePoint" />
            <mxPoint x="-340" y="730" as="targetPoint" />
            <Array as="points">
              <mxPoint x="-170" y="780" />
              <mxPoint x="-340" y="780" />
            </Array>
            <mxPoint as="offset" />
          </mxGeometry>
        </mxCell>
        <mxCell id="jo2Joi-jsEzWObLivGeN-58" value="&lt;span style=&quot;color: rgba(0, 0, 0, 0); font-family: monospace; font-size: 0px; text-align: start; background-color: rgb(251, 251, 251);&quot;&gt;%3CmxGraphModel%3E%3Croot%3E%3CmxCell%20id%3D%220%22%2F%3E%3CmxCell%20id%3D%221%22%20parent%3D%220%22%2F%3E%3CmxCell%20id%3D%222%22%20value%3D%22%22%20style%3D%22endArrow%3Dblock%3BendSize%3D16%3BendFill%3D0%3Bhtml%3D1%3Brounded%3D0%3BexitX%3D0.552%3BexitY%3D-0.014%3BexitDx%3D0%3BexitDy%3D0%3BexitPerimeter%3D0%3B%22%20edge%3D%221%22%20parent%3D%221%22%3E%3CmxGeometry%20x%3D%22-0.125%22%20width%3D%22160%22%20relative%3D%221%22%20as%3D%22geometry%22%3E%3CmxPoint%20x%3D%22-532%22%20y%3D%22819%22%20as%3D%22sourcePoint%22%2F%3E%3CmxPoint%20x%3D%22-360%22%20y%3D%22730%22%20as%3D%22targetPoint%22%2F%3E%3CArray%20as%3D%22points%22%3E%3CmxPoint%20x%3D%22-532%22%20y%3D%22800%22%2F%3E%3CmxPoint%20x%3D%22-360%22%20y%3D%22800%22%2F%3E%3C%2FArray%3E%3CmxPoint%20as%3D%22offset%22%2F%3E%3C%2FmxGeometry%3E%3C%2FmxCell%3E%3C%2Froot%3E%3C%2FmxGraphModel%3E&lt;/span&gt;&lt;span style=&quot;color: rgba(0, 0, 0, 0); font-family: monospace; font-size: 0px; text-align: start; background-color: rgb(251, 251, 251);&quot;&gt;%3CmxGraphModel%3E%3Croot%3E%3CmxCell%20id%3D%220%22%2F%3E%3CmxCell%20id%3D%221%22%20parent%3D%220%22%2F%3E%3CmxCell%20id%3D%222%22%20value%3D%22%22%20style%3D%22endArrow%3Dblock%3BendSize%3D16%3BendFill%3D0%3Bhtml%3D1%3Brounded%3D0%3BexitX%3D0.552%3BexitY%3D-0.014%3BexitDx%3D0%3BexitDy%3D0%3BexitPerimeter%3D0%3B%22%20edge%3D%221%22%20parent%3D%221%22%3E%3CmxGeometry%20x%3D%22-0.125%22%20width%3D%22160%22%20relative%3D%221%22%20as%3D%22geometry%22%3E%3CmxPoint%20x%3D%22-532%22%20y%3D%22819%22%20as%3D%22sourcePoint%22%2F%3E%3CmxPoint%20x%3D%22-360%22%20y%3D%22730%22%20as%3D%22targetPoint%22%2F%3E%3CArray%20as%3D%22points%22%3E%3CmxPoint%20x%3D%22-532%22%20y%3D%22800%22%2F%3E%3CmxPoint%20x%3D%22-360%22%20y%3D%22800%22%2F%3E%3C%2FArray%3E%3CmxPoint%20as%3D%22offset%22%2F%3E%3C%2FmxGeometry%3E%3C%2FmxCell%3E%3C%2Froot%3E%3C%2FmxGraphModel%3E&lt;/span&gt;&lt;span style=&quot;color: rgba(0, 0, 0, 0); font-family: monospace; font-size: 0px; text-align: start; background-color: rgb(251, 251, 251);&quot;&gt;%3CmxGraphModel%3E%3Croot%3E%3CmxCell%20id%3D%220%22%2F%3E%3CmxCell%20id%3D%221%22%20parent%3D%220%22%2F%3E%3CmxCell%20id%3D%222%22%20value%3D%22%22%20style%3D%22endArrow%3Dblock%3BendSize%3D16%3BendFill%3D0%3Bhtml%3D1%3Brounded%3D0%3BexitX%3D0.552%3BexitY%3D-0.014%3BexitDx%3D0%3BexitDy%3D0%3BexitPerimeter%3D0%3B%22%20edge%3D%221%22%20parent%3D%221%22%3E%3CmxGeometry%20x%3D%22-0.125%22%20width%3D%22160%22%20relative%3D%221%22%20as%3D%22geometry%22%3E%3CmxPoint%20x%3D%22-532%22%20y%3D%22819%22%20as%3D%22sourcePoint%22%2F%3E%3CmxPoint%20x%3D%22-360%22%20y%3D%22730%22%20as%3D%22targetPoint%22%2F%3E%3CArray%20as%3D%22points%22%3E%3CmxPoint%20x%3D%22-532%22%20y%3D%22800%22%2F%3E%3CmxPoint%20x%3D%22-360%22%20y%3D%22800%22%2F%3E%3C%2FArray%3E%3CmxPoint%20as%3D%22offset%22%2F%3E%3C%2FmxGeometry%3E%3C%2FmxCell%3E%3C%2Froot%3E%3C%2FmxGraphModel%3E&lt;/span&gt;" style="endArrow=block;endSize=16;endFill=0;html=1;rounded=0;exitX=0.5;exitY=0;exitDx=0;exitDy=0;entryX=0.25;entryY=1;entryDx=0;entryDy=0;" parent="1" source="4IW04uMM6fYaThRrs5CO-9" target="4IW04uMM6fYaThRrs5CO-8" edge="1">
          <mxGeometry width="160" relative="1" as="geometry">
            <mxPoint x="-1160" y="549.44" as="sourcePoint" />
            <mxPoint x="-1000" y="549.44" as="targetPoint" />
            <Array as="points">
              <mxPoint x="-1140" y="540" />
              <mxPoint x="-935" y="540" />
            </Array>
          </mxGeometry>
        </mxCell>
        <mxCell id="jo2Joi-jsEzWObLivGeN-60" value="" style="endArrow=block;endSize=16;endFill=0;html=1;rounded=0;entryX=0.5;entryY=1;entryDx=0;entryDy=0;exitX=0.611;exitY=0;exitDx=0;exitDy=0;exitPerimeter=0;" parent="1" source="4IW04uMM6fYaThRrs5CO-10" target="4IW04uMM6fYaThRrs5CO-8" edge="1">
          <mxGeometry width="160" relative="1" as="geometry">
            <mxPoint x="-910" y="558" as="sourcePoint" />
            <mxPoint x="-750" y="558" as="targetPoint" />
          </mxGeometry>
        </mxCell>
        <mxCell id="jo2Joi-jsEzWObLivGeN-61" value="" style="endArrow=block;endSize=16;endFill=0;html=1;rounded=0;exitX=0.456;exitY=-0.013;exitDx=0;exitDy=0;exitPerimeter=0;entryX=0.804;entryY=0.982;entryDx=0;entryDy=0;entryPerimeter=0;" parent="1" source="4IW04uMM6fYaThRrs5CO-11" target="4IW04uMM6fYaThRrs5CO-8" edge="1">
          <mxGeometry width="160" relative="1" as="geometry">
            <mxPoint x="-763" y="574.8" as="sourcePoint" />
            <mxPoint x="-830" y="495" as="targetPoint" />
            <Array as="points">
              <mxPoint x="-706" y="550" />
              <mxPoint x="-830" y="550" />
            </Array>
          </mxGeometry>
        </mxCell>
        <mxCell id="jo2Joi-jsEzWObLivGeN-63" style="edgeStyle=orthogonalEdgeStyle;rounded=0;orthogonalLoop=1;jettySize=auto;html=1;exitX=0.25;exitY=0;exitDx=0;exitDy=0;entryX=0.802;entryY=1.017;entryDx=0;entryDy=0;entryPerimeter=0;" parent="1" source="C4WSW1BXT8Q_LCxrXvv5-3" target="C4WSW1BXT8Q_LCxrXvv5-1" edge="1">
          <mxGeometry relative="1" as="geometry" />
        </mxCell>
        <mxCell id="jo2Joi-jsEzWObLivGeN-68" value="" style="endArrow=block;endSize=16;endFill=0;html=1;rounded=0;exitX=-0.012;exitY=0.537;exitDx=0;exitDy=0;exitPerimeter=0;entryX=1;entryY=0.355;entryDx=0;entryDy=0;entryPerimeter=0;" parent="1" source="odKOxgNMxmCA9S5rexNY-11" target="odKOxgNMxmCA9S5rexNY-10" edge="1">
          <mxGeometry width="160" relative="1" as="geometry">
            <mxPoint x="310" y="347" as="sourcePoint" />
            <mxPoint x="470" y="347" as="targetPoint" />
          </mxGeometry>
        </mxCell>
        <mxCell id="jo2Joi-jsEzWObLivGeN-69" value="" style="endArrow=block;endSize=16;endFill=0;html=1;rounded=0;exitX=-0.012;exitY=0.537;exitDx=0;exitDy=0;exitPerimeter=0;entryX=1.004;entryY=0.639;entryDx=0;entryDy=0;entryPerimeter=0;" parent="1" target="odKOxgNMxmCA9S5rexNY-8" edge="1">
          <mxGeometry width="160" relative="1" as="geometry">
            <mxPoint x="470" y="256.5" as="sourcePoint" />
            <mxPoint x="342" y="255.5" as="targetPoint" />
          </mxGeometry>
        </mxCell>
        <mxCell id="jo2Joi-jsEzWObLivGeN-70" value="" style="endArrow=block;endSize=16;endFill=0;html=1;rounded=0;exitX=-0.012;exitY=0.537;exitDx=0;exitDy=0;exitPerimeter=0;" parent="1" edge="1">
          <mxGeometry width="160" relative="1" as="geometry">
            <mxPoint x="470" y="210.75" as="sourcePoint" />
            <mxPoint x="340" y="210" as="targetPoint" />
          </mxGeometry>
        </mxCell>
        <mxCell id="jo2Joi-jsEzWObLivGeN-71" value="" style="endArrow=block;endSize=16;endFill=0;html=1;rounded=0;entryX=0.984;entryY=0.392;entryDx=0;entryDy=0;entryPerimeter=0;exitX=0.551;exitY=-0.012;exitDx=0;exitDy=0;exitPerimeter=0;" parent="1" source="C4WSW1BXT8Q_LCxrXvv5-1" target="odKOxgNMxmCA9S5rexNY-26" edge="1">
          <mxGeometry width="160" relative="1" as="geometry">
            <mxPoint x="410" y="510" as="sourcePoint" />
            <mxPoint x="570" y="510" as="targetPoint" />
            <Array as="points">
              <mxPoint x="635" y="535" />
            </Array>
          </mxGeometry>
        </mxCell>
        <mxCell id="jo2Joi-jsEzWObLivGeN-72" value="" style="endArrow=block;endSize=16;endFill=0;html=1;rounded=0;exitX=0.563;exitY=0.029;exitDx=0;exitDy=0;exitPerimeter=0;entryX=0.379;entryY=0.99;entryDx=0;entryDy=0;entryPerimeter=0;" parent="1" source="odKOxgNMxmCA9S5rexNY-29" target="odKOxgNMxmCA9S5rexNY-26" edge="1">
          <mxGeometry width="160" relative="1" as="geometry">
            <mxPoint y="670" as="sourcePoint" />
            <mxPoint x="160" y="670" as="targetPoint" />
            <Array as="points">
              <mxPoint x="30" y="660" />
              <mxPoint x="140" y="660" />
            </Array>
          </mxGeometry>
        </mxCell>
        <mxCell id="jo2Joi-jsEzWObLivGeN-73" value="" style="endArrow=block;endSize=16;endFill=0;html=1;rounded=0;entryX=0.569;entryY=1;entryDx=0;entryDy=0;entryPerimeter=0;exitX=0.375;exitY=0.017;exitDx=0;exitDy=0;exitPerimeter=0;" parent="1" source="odKOxgNMxmCA9S5rexNY-30" target="odKOxgNMxmCA9S5rexNY-26" edge="1">
          <mxGeometry width="160" relative="1" as="geometry">
            <mxPoint x="170" y="690" as="sourcePoint" />
            <mxPoint x="330" y="690" as="targetPoint" />
          </mxGeometry>
        </mxCell>
        <mxCell id="jo2Joi-jsEzWObLivGeN-74" value="" style="endArrow=block;endSize=16;endFill=0;html=1;rounded=0;exitX=0.55;exitY=-0.016;exitDx=0;exitDy=0;exitPerimeter=0;entryX=0.007;entryY=0.893;entryDx=0;entryDy=0;entryPerimeter=0;" parent="1" source="gPjoeom-E5kTU239pR5F-1" target="odKOxgNMxmCA9S5rexNY-27" edge="1">
          <mxGeometry width="160" relative="1" as="geometry">
            <mxPoint x="200" y="820" as="sourcePoint" />
            <mxPoint x="360" y="820" as="targetPoint" />
            <Array as="points">
              <mxPoint x="231" y="773" />
            </Array>
          </mxGeometry>
        </mxCell>
        <mxCell id="jo2Joi-jsEzWObLivGeN-75" value="" style="endArrow=block;endSize=16;endFill=0;html=1;rounded=0;entryX=0.5;entryY=1;entryDx=0;entryDy=0;exitX=0.5;exitY=0;exitDx=0;exitDy=0;" parent="1" source="gPjoeom-E5kTU239pR5F-5" target="odKOxgNMxmCA9S5rexNY-27" edge="1">
          <mxGeometry width="160" relative="1" as="geometry">
            <mxPoint x="374" y="850" as="sourcePoint" />
            <mxPoint x="570" y="810" as="targetPoint" />
          </mxGeometry>
        </mxCell>
        <mxCell id="jo2Joi-jsEzWObLivGeN-76" value="" style="endArrow=block;endSize=16;endFill=0;html=1;rounded=0;entryX=0.997;entryY=0.881;entryDx=0;entryDy=0;exitX=0.5;exitY=0;exitDx=0;exitDy=0;entryPerimeter=0;" parent="1" source="gPjoeom-E5kTU239pR5F-9" target="odKOxgNMxmCA9S5rexNY-27" edge="1">
          <mxGeometry width="160" relative="1" as="geometry">
            <mxPoint x="530" y="830" as="sourcePoint" />
            <mxPoint x="524" y="770" as="targetPoint" />
            <Array as="points">
              <mxPoint x="550" y="771" />
            </Array>
          </mxGeometry>
        </mxCell>
        <mxCell id="jo2Joi-jsEzWObLivGeN-80" value="entities *" style="text;html=1;align=center;verticalAlign=middle;whiteSpace=wrap;rounded=0;rotation=-60;" parent="1" vertex="1">
          <mxGeometry x="-4.95" y="183" width="60" height="30" as="geometry" />
        </mxCell>
        <mxCell id="jo2Joi-jsEzWObLivGeN-84" value="entities *" style="text;html=1;align=center;verticalAlign=middle;whiteSpace=wrap;rounded=0;rotation=0;" parent="1" vertex="1">
          <mxGeometry x="4.95" y="258.33" width="50.1" height="16.34" as="geometry" />
        </mxCell>
        <mxCell id="jo2Joi-jsEzWObLivGeN-88" value="board *" style="text;html=1;align=center;verticalAlign=middle;whiteSpace=wrap;rounded=0;rotation=0;" parent="1" vertex="1">
          <mxGeometry x="140" y="135" width="60" height="30" as="geometry" />
        </mxCell>
        <mxCell id="jo2Joi-jsEzWObLivGeN-89" value="tiles *" style="text;html=1;align=center;verticalAlign=middle;whiteSpace=wrap;rounded=0;rotation=0;" parent="1" vertex="1">
          <mxGeometry x="160" y="440" width="60" height="30" as="geometry" />
        </mxCell>
        <mxCell id="g4F6hLKxBNc20mltrr-n-3" value="&lt;p style=&quot;margin:0px;margin-top:4px;text-align:center;&quot;&gt;&lt;b&gt;MenuView&lt;/b&gt;&lt;/p&gt;&lt;hr size=&quot;1&quot; style=&quot;border-style:solid;&quot;&gt;&lt;p style=&quot;margin:0px;margin-left:4px;&quot;&gt;&lt;br&gt;&lt;/p&gt;&lt;hr size=&quot;1&quot; style=&quot;border-style:solid;&quot;&gt;&lt;p style=&quot;margin:0px;margin-left:4px;&quot;&gt;+ showLoadGameView()&lt;/p&gt;&lt;p style=&quot;margin:0px;margin-left:4px;&quot;&gt;+ showNewGameView()&lt;/p&gt;" style="verticalAlign=top;align=left;overflow=fill;html=1;whiteSpace=wrap;" vertex="1" parent="1">
          <mxGeometry x="140" y="-500" width="160" height="90" as="geometry" />
        </mxCell>
        <mxCell id="g4F6hLKxBNc20mltrr-n-4" value="&lt;p style=&quot;margin:0px;margin-top:4px;text-align:center;&quot;&gt;&lt;b&gt;NewGameView&lt;/b&gt;&lt;/p&gt;&lt;hr size=&quot;1&quot; style=&quot;border-style:solid;&quot;&gt;&lt;p style=&quot;margin:0px;margin-left:4px;&quot;&gt;&lt;br&gt;&lt;/p&gt;&lt;hr size=&quot;1&quot; style=&quot;border-style:solid;&quot;&gt;&lt;p style=&quot;margin:0px;margin-left:4px;&quot;&gt;&lt;br&gt;&lt;/p&gt;" style="verticalAlign=top;align=left;overflow=fill;html=1;whiteSpace=wrap;" vertex="1" parent="1">
          <mxGeometry x="240" y="-370" width="160" height="90" as="geometry" />
        </mxCell>
        <mxCell id="g4F6hLKxBNc20mltrr-n-5" value="&lt;p style=&quot;margin:0px;margin-top:4px;text-align:center;&quot;&gt;&lt;b&gt;LoadGameView&lt;/b&gt;&lt;/p&gt;&lt;hr size=&quot;1&quot; style=&quot;border-style:solid;&quot;&gt;&lt;p style=&quot;margin:0px;margin-left:4px;&quot;&gt;&lt;br&gt;&lt;/p&gt;&lt;hr size=&quot;1&quot; style=&quot;border-style:solid;&quot;&gt;&lt;p style=&quot;margin:0px;margin-left:4px;&quot;&gt;&lt;br&gt;&lt;/p&gt;" style="verticalAlign=top;align=left;overflow=fill;html=1;whiteSpace=wrap;" vertex="1" parent="1">
          <mxGeometry x="40" y="-370" width="160" height="90" as="geometry" />
        </mxCell>
        <mxCell id="g4F6hLKxBNc20mltrr-n-6" value="&lt;p style=&quot;margin:0px;margin-top:4px;text-align:center;&quot;&gt;&lt;b&gt;MapView&lt;/b&gt;&lt;/p&gt;&lt;hr size=&quot;1&quot; style=&quot;border-style:solid;&quot;&gt;&lt;p style=&quot;margin:0px;margin-left:4px;&quot;&gt;&lt;br&gt;&lt;/p&gt;&lt;hr size=&quot;1&quot; style=&quot;border-style:solid;&quot;&gt;&lt;p style=&quot;margin:0px;margin-left:4px;&quot;&gt;&lt;br&gt;&lt;/p&gt;" style="verticalAlign=top;align=left;overflow=fill;html=1;whiteSpace=wrap;" vertex="1" parent="1">
          <mxGeometry x="150" y="-230" width="160" height="90" as="geometry" />
        </mxCell>
        <mxCell id="g4F6hLKxBNc20mltrr-n-7" value="&lt;p style=&quot;margin:0px;margin-top:4px;text-align:center;&quot;&gt;&lt;b&gt;PlayerControlView&lt;/b&gt;&lt;/p&gt;&lt;hr size=&quot;1&quot; style=&quot;border-style:solid;&quot;&gt;&lt;p style=&quot;margin:0px;margin-left:4px;&quot;&gt;&lt;br&gt;&lt;/p&gt;&lt;hr size=&quot;1&quot; style=&quot;border-style:solid;&quot;&gt;&lt;p style=&quot;margin:0px;margin-left:4px;&quot;&gt;&lt;br&gt;&lt;/p&gt;" style="verticalAlign=top;align=left;overflow=fill;html=1;whiteSpace=wrap;" vertex="1" parent="1">
          <mxGeometry x="-55" y="-230" width="160" height="90" as="geometry" />
        </mxCell>
        <mxCell id="g4F6hLKxBNc20mltrr-n-8" value="&lt;p style=&quot;margin:0px;margin-top:4px;text-align:center;&quot;&gt;&lt;b&gt;ShopView&lt;/b&gt;&lt;/p&gt;&lt;hr size=&quot;1&quot; style=&quot;border-style:solid;&quot;&gt;&lt;p style=&quot;margin:0px;margin-left:4px;&quot;&gt;&lt;br&gt;&lt;/p&gt;&lt;hr size=&quot;1&quot; style=&quot;border-style:solid;&quot;&gt;&lt;p style=&quot;margin:0px;margin-left:4px;&quot;&gt;&lt;br&gt;&lt;/p&gt;" style="verticalAlign=top;align=left;overflow=fill;html=1;whiteSpace=wrap;" vertex="1" parent="1">
          <mxGeometry x="-280" y="-290" width="160" height="90" as="geometry" />
        </mxCell>
        <mxCell id="g4F6hLKxBNc20mltrr-n-9" value="&lt;p style=&quot;margin:0px;margin-top:4px;text-align:center;&quot;&gt;&lt;b&gt;ExitView&lt;/b&gt;&lt;/p&gt;&lt;hr size=&quot;1&quot; style=&quot;border-style:solid;&quot;&gt;&lt;p style=&quot;margin:0px;margin-left:4px;&quot;&gt;&lt;br&gt;&lt;/p&gt;&lt;hr size=&quot;1&quot; style=&quot;border-style:solid;&quot;&gt;&lt;p style=&quot;margin:0px;margin-left:4px;&quot;&gt;&lt;br&gt;&lt;/p&gt;" style="verticalAlign=top;align=left;overflow=fill;html=1;whiteSpace=wrap;" vertex="1" parent="1">
          <mxGeometry x="-280" y="-160" width="160" height="90" as="geometry" />
        </mxCell>
        <mxCell id="g4F6hLKxBNc20mltrr-n-15" value="1" style="text;html=1;align=center;verticalAlign=middle;resizable=0;points=[];autosize=1;strokeColor=none;fillColor=none;" vertex="1" parent="1">
          <mxGeometry x="-360" y="130" width="30" height="30" as="geometry" />
        </mxCell>
        <mxCell id="g4F6hLKxBNc20mltrr-n-16" value="" style="endArrow=diamondThin;endFill=1;endSize=24;html=1;rounded=0;" edge="1" parent="1" source="odKOxgNMxmCA9S5rexNY-2" target="g4F6hLKxBNc20mltrr-n-6">
          <mxGeometry width="160" relative="1" as="geometry">
            <mxPoint x="170" y="-270" as="sourcePoint" />
            <mxPoint x="330" y="-270" as="targetPoint" />
          </mxGeometry>
        </mxCell>
        <mxCell id="g4F6hLKxBNc20mltrr-n-17" value="" style="endArrow=open;endFill=1;endSize=12;html=1;rounded=0;" edge="1" parent="1" source="g4F6hLKxBNc20mltrr-n-5" target="g4F6hLKxBNc20mltrr-n-6">
          <mxGeometry width="160" relative="1" as="geometry">
            <mxPoint x="-80" y="-210" as="sourcePoint" />
            <mxPoint x="80" y="-210" as="targetPoint" />
          </mxGeometry>
        </mxCell>
        <mxCell id="g4F6hLKxBNc20mltrr-n-18" value="" style="endArrow=open;endFill=1;endSize=12;html=1;rounded=0;" edge="1" parent="1" source="g4F6hLKxBNc20mltrr-n-4" target="g4F6hLKxBNc20mltrr-n-6">
          <mxGeometry width="160" relative="1" as="geometry">
            <mxPoint x="410" y="-200" as="sourcePoint" />
            <mxPoint x="570" y="-200" as="targetPoint" />
          </mxGeometry>
        </mxCell>
        <mxCell id="g4F6hLKxBNc20mltrr-n-19" value="presents" style="text;html=1;align=center;verticalAlign=middle;resizable=0;points=[];autosize=1;strokeColor=none;fillColor=none;" vertex="1" parent="1">
          <mxGeometry x="270" y="-270" width="70" height="30" as="geometry" />
        </mxCell>
        <mxCell id="g4F6hLKxBNc20mltrr-n-20" value="presents" style="text;html=1;align=center;verticalAlign=middle;resizable=0;points=[];autosize=1;strokeColor=none;fillColor=none;" vertex="1" parent="1">
          <mxGeometry x="170" y="-270" width="70" height="30" as="geometry" />
        </mxCell>
        <mxCell id="g4F6hLKxBNc20mltrr-n-21" value="" style="endArrow=open;endFill=1;endSize=12;html=1;rounded=0;" edge="1" parent="1" source="g4F6hLKxBNc20mltrr-n-3" target="g4F6hLKxBNc20mltrr-n-5">
          <mxGeometry width="160" relative="1" as="geometry">
            <mxPoint x="-70" y="-430" as="sourcePoint" />
            <mxPoint x="90" y="-430" as="targetPoint" />
          </mxGeometry>
        </mxCell>
        <mxCell id="g4F6hLKxBNc20mltrr-n-22" value="" style="endArrow=open;endFill=1;endSize=12;html=1;rounded=0;" edge="1" parent="1" source="g4F6hLKxBNc20mltrr-n-3" target="g4F6hLKxBNc20mltrr-n-4">
          <mxGeometry width="160" relative="1" as="geometry">
            <mxPoint x="310" y="-400" as="sourcePoint" />
            <mxPoint x="470" y="-400" as="targetPoint" />
          </mxGeometry>
        </mxCell>
        <mxCell id="g4F6hLKxBNc20mltrr-n-23" value="presents" style="text;html=1;align=center;verticalAlign=middle;resizable=0;points=[];autosize=1;strokeColor=none;fillColor=none;" vertex="1" parent="1">
          <mxGeometry x="270" y="-410" width="70" height="30" as="geometry" />
        </mxCell>
        <mxCell id="g4F6hLKxBNc20mltrr-n-24" value="presents" style="text;html=1;align=center;verticalAlign=middle;resizable=0;points=[];autosize=1;strokeColor=none;fillColor=none;" vertex="1" parent="1">
          <mxGeometry x="110" y="-410" width="70" height="30" as="geometry" />
        </mxCell>
        <mxCell id="g4F6hLKxBNc20mltrr-n-26" value="" style="endArrow=diamondThin;endFill=1;endSize=24;html=1;rounded=0;" edge="1" parent="1" source="g4F6hLKxBNc20mltrr-n-7" target="g4F6hLKxBNc20mltrr-n-6">
          <mxGeometry width="160" relative="1" as="geometry">
            <mxPoint x="-220" y="-210" as="sourcePoint" />
            <mxPoint x="-60" y="-210" as="targetPoint" />
          </mxGeometry>
        </mxCell>
        <mxCell id="g4F6hLKxBNc20mltrr-n-27" value="" style="endArrow=open;endFill=1;endSize=12;html=1;rounded=0;" edge="1" parent="1" source="g4F6hLKxBNc20mltrr-n-7" target="g4F6hLKxBNc20mltrr-n-8">
          <mxGeometry width="160" relative="1" as="geometry">
            <mxPoint x="-240" y="-200" as="sourcePoint" />
            <mxPoint x="-80" y="-200" as="targetPoint" />
          </mxGeometry>
        </mxCell>
        <mxCell id="g4F6hLKxBNc20mltrr-n-28" value="" style="endArrow=open;endFill=1;endSize=12;html=1;rounded=0;" edge="1" parent="1" source="g4F6hLKxBNc20mltrr-n-7" target="g4F6hLKxBNc20mltrr-n-9">
          <mxGeometry width="160" relative="1" as="geometry">
            <mxPoint x="-130" y="-290" as="sourcePoint" />
            <mxPoint x="30" y="-290" as="targetPoint" />
          </mxGeometry>
        </mxCell>
        <mxCell id="g4F6hLKxBNc20mltrr-n-29" value="presents" style="text;html=1;align=center;verticalAlign=middle;resizable=0;points=[];autosize=1;strokeColor=none;fillColor=none;" vertex="1" parent="1">
          <mxGeometry x="-120" y="-150" width="70" height="30" as="geometry" />
        </mxCell>
        <mxCell id="g4F6hLKxBNc20mltrr-n-30" value="presents" style="text;html=1;align=center;verticalAlign=middle;resizable=0;points=[];autosize=1;strokeColor=none;fillColor=none;" vertex="1" parent="1">
          <mxGeometry x="-110" y="-250" width="70" height="30" as="geometry" />
        </mxCell>
        <mxCell id="g4F6hLKxBNc20mltrr-n-32" value="&lt;p style=&quot;margin:0px;margin-top:4px;text-align:center;&quot;&gt;&lt;b&gt;Database&lt;/b&gt;&lt;/p&gt;&lt;hr size=&quot;1&quot; style=&quot;border-style:solid;&quot;&gt;&lt;p style=&quot;margin:0px;margin-left:4px;&quot;&gt;&lt;span style=&quot;background-color: transparent; color: light-dark(rgb(0, 0, 0), rgb(255, 255, 255));&quot;&gt;+ mapIds: Int*&lt;/span&gt;&lt;/p&gt;&lt;p style=&quot;margin:0px;margin-left:4px;&quot;&gt;&lt;span style=&quot;background-color: transparent; color: light-dark(rgb(0, 0, 0), rgb(255, 255, 255));&quot;&gt;+ map: Map&lt;/span&gt;&lt;/p&gt;&lt;hr size=&quot;1&quot; style=&quot;border-style:solid;&quot;&gt;&lt;p style=&quot;margin:0px;margin-left:4px;&quot;&gt;+ saveGame()&lt;/p&gt;&lt;p style=&quot;margin:0px;margin-left:4px;&quot;&gt;+ loadGame()&lt;/p&gt;&lt;p style=&quot;margin:0px;margin-left:4px;&quot;&gt;+ getIdsAsync()&lt;/p&gt;" style="verticalAlign=top;align=left;overflow=fill;html=1;whiteSpace=wrap;" vertex="1" parent="1">
          <mxGeometry x="-80" y="-80" width="160" height="130" as="geometry" />
        </mxCell>
        <mxCell id="g4F6hLKxBNc20mltrr-n-34" value="" style="endArrow=diamondThin;endFill=0;endSize=24;html=1;rounded=0;" edge="1" parent="1" source="odKOxgNMxmCA9S5rexNY-2" target="g4F6hLKxBNc20mltrr-n-32">
          <mxGeometry width="160" relative="1" as="geometry">
            <mxPoint x="-140" y="120" as="sourcePoint" />
            <mxPoint x="20" y="120" as="targetPoint" />
          </mxGeometry>
        </mxCell>
        <mxCell id="g4F6hLKxBNc20mltrr-n-35" value="1" style="text;html=1;align=center;verticalAlign=middle;resizable=0;points=[];autosize=1;strokeColor=none;fillColor=none;" vertex="1" parent="1">
          <mxGeometry x="125" y="-20" width="30" height="30" as="geometry" />
        </mxCell>
        <mxCell id="g4F6hLKxBNc20mltrr-n-38" value="Save" style="endArrow=open;endSize=12;dashed=1;html=1;rounded=0;" edge="1" parent="1" source="g4F6hLKxBNc20mltrr-n-9" target="g4F6hLKxBNc20mltrr-n-32">
          <mxGeometry width="160" relative="1" as="geometry">
            <mxPoint x="-280" y="-10" as="sourcePoint" />
            <mxPoint x="-120" y="-10" as="targetPoint" />
            <Array as="points">
              <mxPoint x="-200" y="-15" />
            </Array>
          </mxGeometry>
        </mxCell>
        <mxCell id="g4F6hLKxBNc20mltrr-n-39" value="Load" style="endArrow=open;endSize=12;dashed=1;html=1;rounded=0;" edge="1" parent="1" source="g4F6hLKxBNc20mltrr-n-5" target="g4F6hLKxBNc20mltrr-n-32">
          <mxGeometry width="160" relative="1" as="geometry">
            <mxPoint x="-230" y="70" as="sourcePoint" />
            <mxPoint x="-70" y="70" as="targetPoint" />
            <Array as="points">
              <mxPoint x="120" y="-40" />
            </Array>
          </mxGeometry>
        </mxCell>
      </root>
    </mxGraphModel>
  </diagram>
</mxfile>
